<?xml version="1.0" encoding="utf-8"?><!DOCTYPE svg PUBLIC "-//W3C//DTD SVG 1.1//EN" "http://www.w3.org/Graphics/SVG/1.1/DTD/svg11.dtd"><svg viewBox="0 0 492 492" xmlns="http://www.w3.org/2000/svg" xmlns:xlink="http://www.w3.org/1999/xlink"><style>:root>svg{display:none}:root>svg:target{display:block}</style><svg viewBox="0 0 18 15" id="basket" xmlns="http://www.w3.org/2000/svg"><path d="M1.318 1.664h13.41c.04 0 .077.015.114.027l.33-1.101a.82.82 0 01.783-.59h1.636c.226 0 .409.186.409.416v.832c0 .23-.183.416-.41.416h-1.03l-2.555 8.54.954 1.133c.377.448.547 1.064.374 1.627-.222.719-.847 1.179-1.567 1.179H2.046a.413.413 0 01-.41-.416v-.832c0-.23.184-.416.41-.416h11.72l-1.296-1.538c-.033-.04-.057-.083-.082-.126H4.461A1.635 1.635 0 012.98 9.86L.125 3.691A1.37 1.37 0 010 3.121v-.118c0-.74.59-1.34 1.318-1.34z"/></svg><svg fill="none" viewBox="0 0 26 27" id="gift-1" xmlns="http://www.w3.org/2000/svg"><path d="M8.995 18.984c-2.25-3.829-2.255-7.809-2.026-9.661-5.27 2.507-8.422 7.89-6.3 12.716 2.498.249 6.002-.51 8.326-3.055z" fill="#415167"/><path d="M9.574 19.91c-2.052 2.177-5.577 3.407-8.268 3.244 2.457 3.547 8.991 5.107 14.877 1.685-2.52-.612-4.897-2.4-6.609-4.929z" fill="#415167"/><path d="M15.731 11.96c-3.52-3.899-3.812-7.62-3.328-10.062-3.637 2.085-5.413 7.43-3.988 12.878 1.59 6.228 7.242 10.94 12.543 8.568.165-1.75-.053-5.676-5.227-11.384z" fill="#415167"/><path d="M25.525 10.19C23.91 3.982 18.512-.307 13.6 1.35c-.718 2.334-.617 6.087 2.935 9.91 1.611 1.896 5.594 6.386 5.52 11.47 3.264-2.295 4.79-7.364 3.471-12.542z" fill="#415167"/></svg><svg fill="none" viewBox="0 0 30 26" id="gift-2" xmlns="http://www.w3.org/2000/svg"><path d="M14.02 1.394c-.161-.277-.508-.412-.774-.44a.877.877 0 00-.76.467L9.375 7.245l1.632 1.871 1.508-2.433c.321-.517 1.169-.517 1.49 0l1.508 2.433 1.772-2.079-3.266-5.643z" fill="#415167"/><path d="M18.75 9.596l-.517-.894-2.081 2.528c-.172.238-.42.393-.742.363a.876.876 0 01-.712-.416L13.245 8.83l-1.452 2.346a.876.876 0 01-.713.416h-.033a.876.876 0 01-.709-.363L8.444 8.961.104 24.486a.895.895 0 00.02.875.877.877 0 00.755.433h9.9a2.676 2.676 0 01.17-2.196L18.75 9.596zM21.95 10.303c-.311-.558-1.225-.558-1.538 0l-1.838 3.283 2.608 2.863 2.607-2.863-1.838-3.283z" fill="#415167"/><path d="M29.887 24.472l-5.226-9.265-2.833 3.176a.878.878 0 01-1.351 0l-2.833-3.175-5.167 9.264a.891.891 0 00.007.883.877.877 0 00.758.439h15.879c.312 0 .6-.168.759-.44a.891.891 0 00.007-.882z" fill="#415167"/></svg><svg viewBox="0 0 447.243 447.243" id="left-arrow" xmlns="http://www.w3.org/2000/svg"><path d="M420.361 192.229a31.967 31.967 0 00-5.535-.41H99.305l6.88-3.2a63.998 63.998 0 0018.08-12.8l88.48-88.48c11.653-11.124 13.611-29.019 4.64-42.4-10.441-14.259-30.464-17.355-44.724-6.914a32.018 32.018 0 00-3.276 2.754l-160 160c-12.504 12.49-12.515 32.751-.025 45.255l.025.025 160 160c12.514 12.479 32.775 12.451 45.255-.063a32.084 32.084 0 002.745-3.137c8.971-13.381 7.013-31.276-4.64-42.4l-88.32-88.64a64.002 64.002 0 00-16-11.68l-9.6-4.32h314.24c16.347.607 30.689-10.812 33.76-26.88 2.829-17.445-9.019-33.88-26.464-36.71z"/></svg><svg viewBox="0 0 492.004 492.004" id="next" xmlns="http://www.w3.org/2000/svg"><path d="M484.14 226.886L306.46 49.202c-5.072-5.072-11.832-7.856-19.04-7.856-7.216 0-13.972 2.788-19.044 7.856l-16.132 16.136c-5.068 5.064-7.86 11.828-7.86 19.04 0 7.208 2.792 14.2 7.86 19.264L355.9 207.526H26.58C11.732 207.526 0 219.15 0 234.002v22.812c0 14.852 11.732 27.648 26.58 27.648h330.496L252.248 388.926c-5.068 5.072-7.86 11.652-7.86 18.864 0 7.204 2.792 13.88 7.86 18.948l16.132 16.084c5.072 5.072 11.828 7.836 19.044 7.836 7.208 0 13.968-2.8 19.04-7.872l177.68-177.68c5.084-5.088 7.88-11.88 7.86-19.1.016-7.244-2.776-14.04-7.864-19.12z"/></svg><svg viewBox="0 0 163.861 163.861" id="play" xmlns="http://www.w3.org/2000/svg"><path d="M34.857 3.613C20.084-4.861 8.107 2.081 8.107 19.106v125.637c0 17.042 11.977 23.975 26.75 15.509L144.67 97.275c14.778-8.477 14.778-22.211 0-30.686L34.857 3.613z"/></svg><svg viewBox="0 0 492 492" id="prev" xmlns="http://www.w3.org/2000/svg"><path d="M464.344 207.418l.768.168H135.888l103.496-103.724c5.068-5.064 7.848-11.924 7.848-19.124 0-7.2-2.78-14.012-7.848-19.088L223.28 49.538c-5.064-5.064-11.812-7.864-19.008-7.864-7.2 0-13.952 2.78-19.016 7.844L7.844 226.914C2.76 231.998-.02 238.77 0 245.974c-.02 7.244 2.76 14.02 7.844 19.096l177.412 177.412c5.064 5.06 11.812 7.844 19.016 7.844 7.196 0 13.944-2.788 19.008-7.844l16.104-16.112c5.068-5.056 7.848-11.808 7.848-19.008 0-7.196-2.78-13.592-7.848-18.652L134.72 284.406h329.992c14.828 0 27.288-12.78 27.288-27.6v-22.788c0-14.82-12.828-26.6-27.656-26.6z"/></svg></svg>